<?xml version="1.0" standalone="no"?>
<!DOCTYPE svg PUBLIC "-//W3C//DTD SVG 20010904//EN"
 "http://www.w3.org/TR/2001/REC-SVG-20010904/DTD/svg10.dtd">
<svg version="1.0" xmlns="http://www.w3.org/2000/svg"
 width="500.000000pt" height="500.000000pt" viewBox="0 0 500.000000 500.000000"
 preserveAspectRatio="xMidYMid meet">

<g transform="translate(0.000000,500.000000) scale(0.100000,-0.100000)"
fill="#000000" stroke="none">
<path d="M0 2500 l0 -2500 2500 0 2500 0 0 2500 0 2500 -2500 0 -2500 0 0
-2500z m1858 264 c30 -21 30 -77 1 -98 -41 -28 -99 1 -99 49 0 52 55 79 98 49z
m1435 -34 c9 -11 28 -20 42 -20 14 0 33 9 42 20 11 13 30 20 51 20 30 0 33 -2
27 -22 -13 -43 -50 -70 -102 -75 -70 -7 -121 20 -137 75 -7 20 -4 22 26 22 21
0 40 -7 51 -20z m-1781 -110 l3 -121 60 56 60 56 138 -3 137 -3 0 43 0 42 60
0 60 0 0 -45 0 -45 40 0 c22 0 40 -4 40 -8 0 -5 24 -1 53 9 28 10 68 18 87 19
84 0 161 -43 175 -98 9 -37 25 -9 25 46 0 41 1 42 33 43 47 2 71 -2 78 -12 3
-6 21 -3 42 6 43 18 59 18 109 5 51 -15 96 -62 109 -117 10 -39 14 -44 33 -37
12 4 54 9 94 11 61 4 73 7 70 21 -2 9 -16 23 -32 30 -27 13 -65 9 -117 -12
-22 -10 -56 62 -37 79 33 30 165 45 215 23 36 -15 83 -58 83 -75 0 -22 15 -15
33 16 21 35 90 71 138 71 19 0 51 -9 72 -20 31 -17 37 -17 37 -5 0 12 13 15
55 15 l55 0 0 -165 c0 -183 -10 -226 -59 -263 -32 -23 -92 -42 -138 -42 -46 0
-128 19 -149 34 -17 13 -17 15 0 54 l19 41 29 -15 c17 -9 55 -16 85 -17 47 -1
58 2 74 22 11 13 19 32 19 42 0 18 -2 19 -30 4 -34 -17 -97 -20 -137 -4 -15 5
-43 24 -60 42 l-33 31 0 -52 0 -52 -55 0 c-43 0 -55 3 -55 15 0 14 -3 14 -24
0 -29 -19 -105 -22 -145 -6 -15 7 -34 23 -41 36 l-13 24 -34 -29 c-18 -16 -44
-32 -58 -36 -28 -7 -102 -1 -127 10 -16 7 -18 1 -18 -63 l0 -71 -60 0 -60 0 0
60 0 60 -65 0 c-52 0 -65 3 -65 15 0 14 -3 14 -22 1 -38 -23 -82 -28 -125 -13
-27 9 -47 11 -57 5 -9 -5 -42 -9 -73 -9 -98 0 -133 42 -133 164 0 62 -3 77
-15 77 -12 0 -15 -20 -15 -120 l0 -120 -119 0 -118 0 -48 61 c-45 58 -48 59
-66 43 -13 -12 -19 -31 -19 -61 l0 -43 -60 0 -60 0 0 235 0 235 60 0 59 0 3
-120z m2148 -180 l0 -170 -60 0 -59 0 -3 63 c-2 34 -2 110 0 170 l3 107 60 0
59 0 0 -170z"/>
<path d="M1698 2533 c-32 -32 -58 -62 -58 -67 0 -5 26 -41 58 -80 l57 -71 3
73 c2 40 2 102 0 138 l-3 65 -57 -58z"/>
<path d="M2110 2535 c0 -23 -4 -25 -40 -25 l-41 0 3 -72 c3 -70 4 -73 29 -76
22 -3 28 3 42 38 19 50 61 70 147 70 44 0 60 4 60 14 0 36 -61 53 -118 33
l-43 -15 -15 29 c-18 36 -24 37 -24 4z"/>
<path d="M2584 2499 c-27 -30 -24 -97 6 -121 65 -53 149 28 109 105 -16 30
-28 37 -65 37 -19 0 -38 -8 -50 -21z"/>
<path d="M3283 2512 c-18 -11 -32 -57 -26 -81 6 -22 49 -51 76 -51 8 0 26 9
41 21 32 25 36 77 8 102 -19 17 -78 23 -99 9z"/>
<path d="M2441 2474 c0 -11 3 -14 6 -6 3 7 2 16 -1 19 -3 4 -6 -2 -5 -13z"/>
<path d="M2219 2394 c-9 -11 -10 -20 -2 -32 23 -38 93 -20 93 23 0 22 -4 25
-39 25 -23 0 -44 -6 -52 -16z"/>
<path d="M2933 2403 c-16 -6 -17 -35 -1 -51 28 -28 88 0 88 41 0 13 -9 17 -37
16 -21 0 -44 -3 -50 -6z"/>
<path d="M2441 2324 c0 -11 3 -14 6 -6 3 7 2 16 -1 19 -3 4 -6 -2 -5 -13z"/>
</g>
</svg>
